# xmcd CD database file
#
# Track frame offsets:
#	151
#	21456
#	42091
#	58708
#	79105
#	95162
#	114195
#	134374
#	155043
#	175662
#
# Disc length: 2605 seconds
#
# Revision: 0
# Processed by: cddbd v1.5.2PL0 Copyright (c) Steve Scherf et al.
# Submitted via: CDex 1.51
#
DISCID=800a2b0a
DTITLE=秀蘭瑪雅 - 故鄉月
DYEAR=2009
DGENRE=Country
TTITLE0=故鄉月
TTITLE1=前世緣
TTITLE2=含淚的玫瑰
TTITLE3=花離枝
TTITLE4=愛的歌詩
TTITLE5=無情雨
TTITLE6=感情親像風吹
TTITLE7=曇花
TTITLE8=感情到最後
TTITLE9=最後的情批
EXTD=YEAR: 2009
EXTT0=
EXTT1=
EXTT2=
EXTT3=
EXTT4=
EXTT5=
EXTT6=
EXTT7=
EXTT8=
EXTT9=
PLAYORDER=
